<svg xmlns="http://www.w3.org/2000/svg" viewBox="0 0 32 32" width="32" height="32">
  <!-- 배경 -->
  <rect width="32" height="32" rx="6" fill="#2563eb"/>
  <!-- 계산기 본체 -->
  <rect x="7" y="5" width="18" height="22" rx="2" fill="white"/>
  <!-- 디스플레이 -->
  <rect x="9" y="7" width="14" height="6" rx="1" fill="#2563eb"/>
  <!-- 버튼 행 1 -->
  <rect x="9" y="15" width="3" height="3" rx="0.5" fill="#2563eb"/>
  <rect x="13" y="15" width="3" height="3" rx="0.5" fill="#2563eb"/>
  <rect x="17" y="15" width="3" height="3" rx="0.5" fill="#2563eb"/>
  <rect x="21" y="15" width="3" height="3" rx="0.5" fill="#93c5fd"/>
  <!-- 버튼 행 2 -->
  <rect x="9" y="19" width="3" height="3" rx="0.5" fill="#2563eb"/>
  <rect x="13" y="19" width="3" height="3" rx="0.5" fill="#2563eb"/>
  <rect x="17" y="19" width="3" height="3" rx="0.5" fill="#2563eb"/>
  <rect x="21" y="19" width="3" height="3" rx="0.5" fill="#93c5fd"/>
  <!-- 버튼 행 3 (0 버튼 넓게) -->
  <rect x="9" y="23" width="7" height="3" rx="0.5" fill="#2563eb"/>
  <rect x="17" y="23" width="3" height="3" rx="0.5" fill="#2563eb"/>
  <rect x="21" y="23" width="3" height="3" rx="0.5" fill="#1d4ed8"/>
</svg>
