<svg xmlns="http://www.w3.org/2000/svg" viewBox="0 0 1200 630" width="1200" height="630">
  <!-- 배경 -->
  <rect width="1200" height="630" fill="#2563eb"/>
  <!-- 배경 장식 원 -->
  <circle cx="100" cy="100" r="200" fill="#1d4ed8" opacity="0.5"/>
  <circle cx="1100" cy="530" r="250" fill="#1d4ed8" opacity="0.5"/>
  <!-- 계산기 아이콘 -->
  <rect x="520" y="140" width="160" height="200" rx="12" fill="white" opacity="0.15"/>
  <rect x="532" y="152" width="136" height="50" rx="6" fill="white" opacity="0.3"/>
  <rect x="532" y="212" width="36" height="28" rx="4" fill="white" opacity="0.3"/>
  <rect x="578" y="212" width="36" height="28" rx="4" fill="white" opacity="0.3"/>
  <rect x="624" y="212" width="36" height="28" rx="4" fill="white" opacity="0.3"/>
  <rect x="532" y="250" width="36" height="28" rx="4" fill="white" opacity="0.3"/>
  <rect x="578" y="250" width="36" height="28" rx="4" fill="white" opacity="0.3"/>
  <rect x="624" y="250" width="36" height="28" rx="4" fill="white" opacity="0.5"/>
  <rect x="532" y="288" width="82" height="28" rx="4" fill="white" opacity="0.3"/>
  <rect x="624" y="288" width="36" height="28" rx="4" fill="white" opacity="0.5"/>
  <!-- 메인 텍스트 -->
  <text x="600" y="400" font-family="sans-serif" font-size="64" font-weight="700" fill="white" text-anchor="middle" letter-spacing="-1">한국 노동법·세법 가이드</text>
  <!-- 서브 텍스트 -->
  <text x="600" y="480" font-family="sans-serif" font-size="38" fill="white" text-anchor="middle" opacity="0.85">정부 공식 자료 기반 계산 도구</text>
  <!-- 도메인 -->
  <text x="600" y="560" font-family="sans-serif" font-size="30" fill="white" text-anchor="middle" opacity="0.65">calc-tools.kr</text>
</svg>
