<svg xmlns="http://www.w3.org/2000/svg" viewBox="0 0 1200 630" width="1200" height="630">
  <!-- 배경 -->
  <rect width="1200" height="630" fill="#2563eb"/>
  <!-- 배경 장식 원 -->
  <circle cx="100" cy="100" r="200" fill="#1d4ed8" opacity="0.5"/>
  <circle cx="1100" cy="530" r="250" fill="#1d4ed8" opacity="0.5"/>
  <!-- 계산기 아이콘 -->
  <rect x="520" y="140" width="160" height="200" rx="12" fill="white" opacity="0.15"/>
  <rect x="532" y="152" width="136" height="50" rx="6" fill="white" opacity="0.3"/>
  <rect x="532" y="212" width="36" height="28" rx="4" fill="white" opacity="0.3"/>
  <rect x="578" y="212" width="36" height="28" rx="4" fill="white" opacity="0.3"/>
  <rect x="624" y="212" width="36" height="28" rx="4" fill="white" opacity="0.3"/>
  <rect x="532" y="250" width="36" height="28" rx="4" fill="white" opacity="0.3"/>
  <rect x="578" y="250" width="36" height="28" rx="4" fill="white" opacity="0.3"/>
  <rect x="624" y="250" width="36" height="28" rx="4" fill="white" opacity="0.5"/>
  <rect x="532" y="288" width="82" height="28" rx="4" fill="white" opacity="0.3"/>
  <rect x="624" y="288" width="36" height="28" rx="4" fill="white" opacity="0.5"/>
  <!-- 메인 텍스트 -->
  <text x="600" y="420" font-family="sans-serif" font-size="80" font-weight="700" fill="white" text-anchor="middle" letter-spacing="-1">계산기 도구 모음</text>
  <!-- 서브 텍스트 -->
  <text x="600" y="500" font-family="sans-serif" font-size="36" fill="white" text-anchor="middle" opacity="0.8">일상에 필요한 모든 계산기를 한 곳에서</text>
  <!-- 도메인 -->
  <text x="600" y="580" font-family="sans-serif" font-size="28" fill="white" text-anchor="middle" opacity="0.6">calc-tools.kr</text>
</svg>
